<svg width="512" height="512" viewBox="0 0 512 512" fill="none" xmlns="http://www.w3.org/2000/svg">
<rect width="512" height="512" rx="72" fill="#EEEFF6"/>
<rect width="512" height="512" rx="72" fill="#181D3D"/>
<rect width="512" height="512" rx="72" fill="url(#paint0_linear)" fill-opacity="0.2"/>
<rect x="448" y="448" width="192" height="30" rx="2" transform="rotate(-180 448 448)" fill="#CDCFE8" fill-opacity="0.6"/>
<rect x="448" y="409.667" width="192" height="30" rx="2" transform="rotate(-180 448 409.667)" fill="#CDCFE8" fill-opacity="0.3"/>
<rect x="448" y="371.333" width="192" height="30" rx="2" transform="rotate(-180 448 371.333)" fill="#CDCFE8" fill-opacity="0.15"/>
<g filter="url(#filter0_d)">
<path d="M395.54 95V95C423.657 123.118 423.708 168.756 395.59 196.874L258.427 334.038L207.464 283.075L395.54 95Z" fill="#FF5F6F"/>
<path d="M258.427 334.038V334.038C230.309 362.155 184.67 362.206 156.553 334.088L65.4979 243.033V243.033C93.6157 214.916 139.254 214.865 167.372 242.983L258.427 334.038Z" fill="#FF5F6F"/>
</g>
<defs>
<filter id="filter0_d" x="33.4979" y="95" width="445.004" height="370" filterUnits="userSpaceOnUse" color-interpolation-filters="sRGB">
<feFlood flood-opacity="0" result="BackgroundImageFix"/>
<feColorMatrix in="SourceAlpha" type="matrix" values="0 0 0 0 0 0 0 0 0 0 0 0 0 0 0 0 0 0 127 0" result="hardAlpha"/>
<feOffset dy="48"/>
<feGaussianBlur stdDeviation="16"/>
<feComposite in2="hardAlpha" operator="out"/>
<feColorMatrix type="matrix" values="0 0 0 0 0.0725521 0 0 0 0 0.0741256 0 0 0 0 0.0875 0 0 0 0.3 0"/>
<feBlend mode="normal" in2="BackgroundImageFix" result="effect1_dropShadow"/>
<feBlend mode="normal" in="SourceGraphic" in2="effect1_dropShadow" result="shape"/>
</filter>
<linearGradient id="paint0_linear" x1="256" y1="0" x2="256" y2="512" gradientUnits="userSpaceOnUse">
<stop stop-color="#8689A5"/>
<stop offset="1" stop-color="#181D3D"/>
</linearGradient>
</defs>
</svg>
